<svg xmlns="http://www.w3.org/2000/svg" width="18" height="16" viewBox="0 0 18 16"><title>icon job seekers</title><g fill="none"><g fill="#00D4FF"><path d="M11.4 2.7C12.2 3.3 12.8 4.2 12.9 5.3 13.3 5.5 13.7 5.6 14.1 5.6 15.5 5.6 16.7 4.3 16.7 2.8 16.7 1.2 15.5 0 14.1 0 12.6 0 11.4 1.2 11.4 2.7ZM9.1 8.5C10.6 8.5 11.8 7.2 11.8 5.7 11.8 4.1 10.6 2.9 9.1 2.9 7.7 2.9 6.5 4.1 6.5 5.7 6.5 7.2 7.7 8.5 9.1 8.5ZM10.3 9.3L8 9.3C6.1 9.3 5 10.2 5 12.2L5 15.2C6.3 15.7 7.8 16 9.4 16 11.1 16 12.6 15.6 14 14.8L14 12.2C14 10.2 12.1 9.3 10.3 9.3ZM15 6.5L12.8 6.5C12.8 7.1 12.3 7.8 11.5 8.5 13.8 9.1 15 10.3 15 12.2L15 13.1C16.5 13.1 17.5 12.7 18 12L18 9.3C18 7.4 16.9 6.5 15 6.5ZM4 5.6C4.5 5.6 5 5.4 5.4 5.1 5.6 4.3 6 3.5 6.6 2.9 6.7 2.9 6.7 2.8 6.7 2.8 6.7 1.2 5.5 0 4 0 2.6 0 1.4 1.2 1.4 2.8 1.4 4.3 2.6 5.6 4 5.6ZM6.5 8.5C5.8 7.8 5.5 7.1 5.5 6.5L3 6.5C1.1 6.5 0 7.4 0 9.3L0 12C1.1 13.2 2.4 13.5 4 13.1L4 12.2C4 10.3 4.8 9.1 6.5 8.5Z"/></g></g></svg>
