<svg xmlns="http://www.w3.org/2000/svg" width="18" height="16" viewBox="0 0 18 16"><title>  icon analytics</title><g fill="none"><g fill="#FFF"><path d="M4 9.5L4 15.6C4 15.8 3.8 16 3.7 16L3.7 16 1.3 16C1.1 16 1 15.8 1 15.6L1 15.6 1 12C1.6 12 2 11.6 2.3 11.3L2.3 11.3 4 9.5ZM5 8.5L8 11.6 8 15.6C8 15.8 7.8 16 7.7 16L7.7 16 5.3 16C5.1 16 5 15.8 5 15.6L5 15.6 5 8.5ZM12 8.8L12 15.7C12 15.9 11.8 16 11.7 16L11.7 16 9.3 16C9.1 16 9 15.9 9 15.7L9 15.7 9 11.8C9.1 11.8 9.2 11.7 9.3 11.6L9.3 11.6 12 8.8ZM16 4.7L16 15.7C16 15.9 15.8 16 15.7 16L15.7 16 13.3 16C13.1 16 13 15.9 13 15.7L13 15.7 13 7.8 16 4.7ZM17.3 0C17.6 0 17.7 0.1 17.8 0.2 18 0.3 18 0.5 18 0.7L18 0.7 17.9 1.9C17.9 2.6 17.9 3.3 17.8 4.1 17.8 4.3 17.8 4.5 17.6 4.7 17.6 4.7 17.5 4.8 17.5 4.8 17.4 4.8 17.3 4.9 17.2 4.9 17 4.9 16.8 4.7 16.7 4.6L16.7 4.6 15.9 3.7 9.3 10.6C9.1 10.7 8.9 10.9 8.7 10.9 8.4 10.9 8.2 10.7 8 10.6L8 10.6 5 7.4 1.8 10.7C1.6 10.9 1.4 11 1.1 11 0.9 11 0.6 10.9 0.5 10.7L0.5 10.7 0.3 10.5C-0.1 10.1-0.1 9.5 0.3 9.1L0.3 9.1 4.3 5C4.5 4.8 4.7 4.7 5 4.7 5.2 4.7 5.5 4.8 5.6 5L5.6 5 8.7 8.1 14.4 2.1C14.2 1.9 14 1.7 13.8 1.5L13.8 1.5 13.5 1.2C13.4 1.1 13.2 0.9 13.3 0.5 13.3 0.5 13.4 0.4 13.4 0.3 13.6 0.2 13.8 0.2 14 0.2 15.1 0.1 16.2 0.1 17.3 0L17.3 0Z"/></g></g></svg>

