<?xml version="1.0" encoding="UTF-8"?>
<svg width="26px" height="36px" viewBox="0 0 26 36" version="1.1" xmlns="http://www.w3.org/2000/svg" xmlns:xlink="http://www.w3.org/1999/xlink">
    <!-- Generator: Sketch 61.2 (89653) - https://sketch.com -->
    <title>Symbol</title>
    <desc>Created with Sketch.</desc>
    <g id="pages/test" stroke="none" stroke-width="1" fill="none" fill-rule="evenodd">
        <g id="pages/test/test-list" transform="translate(-27.000000, -15.000000)" fill="#00D4FF">
            <g id="header">
                <g id="logo" transform="translate(27.000000, 15.000000)">
                    <path d="M22,8 C24.8333333,8 24.9907407,10.6759259 24.9994856,10.973251 L24.9994856,32.026749 C24.9907407,32.3240741 24.8333333,35 22,35 L3.73239368,35.0000725 C3.38657394,35.5978339 2.74025244,36 2,36 C0.8954305,36 0,35.1045695 0,34 C0,32.8954305 0.8954305,32 2,32 C2.74025244,32 3.38657394,32.4021661 3.73239368,32.9999275 L21,33 C22.862069,33.026846 22.9904875,31.2700525 22.999344,31.0276084 L22.999344,11.9727746 C22.9904875,11.7336504 22.862069,10 21,10 L5,10 C3,10 3,12 3,12 L3.00007248,24.2676063 C3.59783388,24.6134261 4,25.2597476 4,26 C4,27.1045695 3.1045695,28 2,28 C0.8954305,28 0,27.1045695 0,26 C0,25.2601625 0.401715387,24.6141507 0.998922499,24.2681881 L1,11 C1,11 1,8 4,8 L22,8 Z M10,13 C11,13 11,14 11,14 L11,29 C11,29 11,30 10,30 C9.05555556,30 9.00308642,29.1080247 9.00017147,29.0089163 L9,14 C9,14 9,13 10,13 Z M16,13 C17,13 17,14 17,14 L17,29 C17,29 17,30 16,30 C15.0555556,30 15.0030864,29.1080247 15.0001715,29.0089163 L15,14 C15,14 15,13 16,13 Z M16,2.84217094e-14 C18,2.84217094e-14 18,2 18,2 L18,2 L18,4 L25.0089163,4.00017147 C25.1080247,4.00308642 26,4.05555556 26,5 C26,6 25,6 25,6 L25,6 L1,6 C1,6 0,6 0,5 C2.6534014e-16,4 1,4 1,4 L8,4 L8.00065603,1.97277461 C8.00951249,1.73365042 8.13793103,3.46817881e-14 10,2.84217094e-14 L10,2.84217094e-14 Z M16,2 L10,2 L10,4 L16,4 L16,2 Z" id="Symbol"></path>
                </g>
            </g>
        </g>
    </g>
</svg>