<svg xmlns="http://www.w3.org/2000/svg" width="10" height="10" viewBox="0 0 10 10"><title>  close</title><desc>  Created with Sketch.</desc><g fill="none"><g fill="#29313C"><path d="M-1.1 0L-4.8 3.7C-5.1 4-5.1 4.5-4.8 4.8 -4.5 5.1-4 5.1-3.7 4.8L0 1.1 3.7 4.8C4 5.1 4.5 5.1 4.8 4.8 5.1 4.5 5.1 4 4.8 3.7L1.1 0 4.8-3.7C5.1-4 5.1-4.5 4.8-4.8 4.6-4.9 4.4-5 4.2-5 4-5 3.9-4.9 3.7-4.8L0-1.1 -3.7-4.8C-3.9-4.9-4-5-4.2-5 -4.4-5-4.6-4.9-4.8-4.8 -5.1-4.5-5.1-4-4.8-3.7L-1.1 0Z" transform="translate(-760 -88)translate(750 78)translate(15 15)scale(-1 1)"/></g></g></svg>
