<?xml version="1.0" encoding="UTF-8"?>
<svg width="96px" height="22px" viewBox="0 0 96 22" version="1.1" xmlns="http://www.w3.org/2000/svg" xmlns:xlink="http://www.w3.org/1999/xlink">
    <!-- Generator: Sketch 61.2 (89653) - https://sketch.com -->
    <title>Binman</title>
    <desc>Created with Sketch.</desc>
    <g id="pages/test" stroke="none" stroke-width="1" fill="none" fill-rule="evenodd">
        <g id="pages/test/test-list" transform="translate(-63.000000, -22.000000)" fill="#FFFFFF">
            <g id="header">
                <g id="logo" transform="translate(27.000000, 15.000000)">
                    <path d="M43.6363636,26.8027466 C45.1454621,26.8027466 46.4318129,26.2671714 47.4954545,25.196005 C48.5590962,24.1248386 49.0909091,22.8293875 49.0909091,21.309613 C49.0909091,19.7898384 48.5590962,18.4943874 47.4954545,17.423221 C46.4318129,16.3520546 45.1454621,15.8164794 43.6363636,15.8164794 C42.1272652,15.8164794 40.8409144,16.3520546 39.7772727,17.423221 C38.713631,18.4943874 38.1818182,19.7898384 38.1818182,21.309613 C38.1818182,22.8293875 38.713631,24.1248386 39.7772727,25.196005 C40.8409144,26.2671714 42.1272652,26.8027466 43.6363636,26.8027466 Z M38.1818182,15.9263421 L38.2363636,15.8714107 C39.7272802,14.3699467 41.5272622,13.619226 43.6363636,13.619226 C45.7454651,13.619226 47.5454471,14.3699467 49.0363636,15.8714107 C50.5272802,17.3728748 51.2727273,19.1855907 51.2727273,21.309613 C51.2727273,23.4336353 50.5272802,25.2463512 49.0363636,26.7478152 C47.5454471,28.2492793 45.7454651,29 43.6363636,29 C41.5272622,29 39.7272802,28.2492793 38.2363636,26.7478152 C36.7454471,25.2463512 36,23.4336353 36,21.309613 L36,8.09862672 C36,7.79650286 36.1068171,7.53787041 36.3204545,7.3227216 C36.534092,7.10757279 36.7909076,7 37.0909091,7 C37.3909106,7 37.6477262,7.10757279 37.8613636,7.3227216 C38.0750011,7.53787041 38.1818182,7.79650286 38.1818182,8.09862672 L38.1818182,15.9263421 Z M57,10.3233458 C57,10.6987118 56.8659104,11.0214302 56.5977273,11.2915106 C56.3295441,11.561591 56.0090928,11.6966292 55.6363636,11.6966292 C55.2636345,11.6966292 54.9431832,11.561591 54.675,11.2915106 C54.4068168,11.0214302 54.2727273,10.6987118 54.2727273,10.3233458 C54.2727273,9.94797981 54.4068168,9.62526144 54.675,9.35518102 C54.9431832,9.08510061 55.2636345,8.95006242 55.6363636,8.95006242 C56.0090928,8.95006242 56.3295441,9.08510061 56.5977273,9.35518102 C56.8659104,9.62526144 57,9.94797981 57,10.3233458 Z M54.5454545,14.7178527 C54.5454545,14.4157288 54.6522717,14.1570964 54.8659091,13.9419476 C55.0795465,13.7267988 55.3363621,13.619226 55.6363636,13.619226 C55.9363651,13.619226 56.1931808,13.7267988 56.4068182,13.9419476 C56.6204556,14.1570964 56.7272727,14.4157288 56.7272727,14.7178527 L56.7272727,27.9013733 C56.7272727,28.2034971 56.6204556,28.4621296 56.4068182,28.6772784 C56.1931808,28.8924272 55.9363651,29 55.6363636,29 C55.3363621,29 55.0795465,28.8924272 54.8659091,28.6772784 C54.6522717,28.4621296 54.5454545,28.2034971 54.5454545,27.9013733 L54.5454545,14.7178527 Z M60,14.7178527 C60,14.4157288 60.1068171,14.1570964 60.3204545,13.9419476 C60.534092,13.7267988 60.7909076,13.619226 61.0909091,13.619226 C61.3909106,13.619226 61.6477262,13.7267988 61.8613636,13.9419476 C62.0750011,14.1570964 62.1818182,14.4157288 62.1818182,14.7178527 L62.1818182,15.6104869 C63.5454614,14.282973 65.1818086,13.619226 67.0909091,13.619226 C69.0454643,13.619226 70.7159022,14.3173047 72.1022727,15.7134831 C73.4886433,17.1096616 74.1818182,18.7919169 74.1818182,20.7602996 L74.1818182,27.9013733 C74.1818182,28.2034971 74.0750011,28.4621296 73.8613636,28.6772784 C73.6477262,28.8924272 73.3909106,29 73.0909091,29 C72.7909076,29 72.534092,28.8924272 72.3204545,28.6772784 C72.1068171,28.4621296 72,28.2034971 72,27.9013733 L72,20.7602996 C72,19.3961646 71.5204593,18.2311742 70.5613636,17.2652934 C69.6022679,16.2994126 68.4454613,15.8164794 67.0909091,15.8164794 C65.7363569,15.8164794 64.5795503,16.2994126 63.6204545,17.2652934 C62.6613588,18.2311742 62.1818182,19.3961646 62.1818182,20.7602996 L62.1818182,27.9013733 C62.1818182,28.2034971 62.0750011,28.4621296 61.8613636,28.6772784 C61.6477262,28.8924272 61.3909106,29 61.0909091,29 C60.7909076,29 60.534092,28.8924272 60.3204545,28.6772784 C60.1068171,28.4621296 60,28.2034971 60,27.9013733 L60,14.7178527 Z M78.5454545,27.9013733 C78.5454545,28.2034971 78.4386374,28.4621296 78.225,28.6772784 C78.0113626,28.8924272 77.754547,29 77.4545455,29 C77.154544,29 76.8977283,28.8924272 76.6840909,28.6772784 C76.4704535,28.4621296 76.3636364,28.2034971 76.3636364,27.9013733 L76.3636364,14.7178527 C76.3636364,14.4157288 76.4704535,14.1570964 76.6840909,13.9419476 C76.8977283,13.7267988 77.154544,13.619226 77.4545455,13.619226 C77.754547,13.619226 78.0113626,13.7267988 78.225,13.9419476 C78.4386374,14.1570964 78.5454545,14.4157288 78.5454545,14.7178527 L78.5454545,15.0062422 C79.6272781,14.0815601 80.8999927,13.619226 82.3636364,13.619226 C84.0181901,13.619226 85.4318123,14.2097319 86.6045455,15.3907615 C86.8500012,15.6379538 87.0727263,15.898875 87.2727273,16.1735331 C87.4727283,15.898875 87.6954533,15.6379538 87.9409091,15.3907615 C89.1136422,14.2097319 90.5272645,13.619226 92.1818182,13.619226 C93.8363719,13.619226 95.2499941,14.2097319 96.4227273,15.3907615 C97.5954604,16.5717912 98.1818182,17.9954141 98.1818182,19.6616729 L98.1818182,27.9013733 C98.1818182,28.2034971 98.0750011,28.4621296 97.8613636,28.6772784 C97.6477262,28.8924272 97.3909106,29 97.0909091,29 C96.7909076,29 96.534092,28.8924272 96.3204545,28.6772784 C96.1068171,28.4621296 96,28.2034971 96,27.9013733 L96,19.6616729 C96,18.5996618 95.6272765,17.6933038 94.8818182,16.9425718 C94.1363599,16.1918398 93.2363689,15.8164794 92.1818182,15.8164794 C91.1272675,15.8164794 90.2272765,16.1918398 89.4818182,16.9425718 C88.7363599,17.6933038 88.3636364,18.5996618 88.3636364,19.6616729 L88.3636364,27.9013733 C88.3636364,28.2034971 88.2568192,28.4621296 88.0431818,28.6772784 C87.8295444,28.8924272 87.5727288,29 87.2727273,29 C86.9727258,29 86.7159102,28.8924272 86.5022727,28.6772784 C86.2886353,28.4621296 86.1818182,28.2034971 86.1818182,27.9013733 L86.1818182,19.6616729 C86.1818182,18.5996618 85.8090946,17.6933038 85.0636364,16.9425718 C84.3181781,16.1918398 83.4181871,15.8164794 82.3636364,15.8164794 C81.3090856,15.8164794 80.4090946,16.1918398 79.6636364,16.9425718 C78.9181781,17.6933038 78.5454545,18.5996618 78.5454545,19.6616729 L78.5454545,27.9013733 Z M108,15.8164794 C106.490902,15.8164794 105.204551,16.3520546 104.140909,17.423221 C103.077267,18.4943874 102.545455,19.7898384 102.545455,21.309613 C102.545455,22.8293875 103.077267,24.1248386 104.140909,25.196005 C105.204551,26.2671714 106.490902,26.8027466 108,26.8027466 C109.509098,26.8027466 110.795449,26.2671714 111.859091,25.196005 C112.922733,24.1248386 113.454545,22.8293875 113.454545,21.309613 C113.454545,19.7898384 112.922733,18.4943874 111.859091,17.423221 C110.795449,16.3520546 109.509098,15.8164794 108,15.8164794 Z M113.454545,26.6928839 C111.927265,28.230969 110.109101,29 108,29 C105.890899,29 104.090917,28.2492793 102.6,26.7478152 C101.109083,25.2463512 100.363636,23.4336353 100.363636,21.309613 C100.363636,19.1855907 101.109083,17.3728748 102.6,15.8714107 C104.090917,14.3699467 105.890899,13.619226 108,13.619226 C110.109101,13.619226 111.909083,14.3699467 113.4,15.8714107 C114.890917,17.3728748 115.636364,19.1855907 115.636364,21.309613 L115.636364,27.9013733 C115.636364,28.2034971 115.529547,28.4621296 115.315909,28.6772784 C115.102272,28.8924272 114.845456,29 114.545455,29 C114.245453,29 113.988637,28.8924272 113.775,28.6772784 C113.561363,28.4621296 113.454545,28.2034971 113.454545,27.9013733 L113.454545,26.6928839 Z M117.818182,14.7178527 C117.818182,14.4157288 117.924999,14.1570964 118.138636,13.9419476 C118.352274,13.7267988 118.609089,13.619226 118.909091,13.619226 C119.209092,13.619226 119.465908,13.7267988 119.679545,13.9419476 C119.893183,14.1570964 120,14.4157288 120,14.7178527 L120,15.6104869 C121.363643,14.282973 122.99999,13.619226 124.909091,13.619226 C126.863646,13.619226 128.534084,14.3173047 129.920455,15.7134831 C131.306825,17.1096616 132,18.7919169 132,20.7602996 L132,27.9013733 C132,28.2034971 131.893183,28.4621296 131.679545,28.6772784 C131.465908,28.8924272 131.209092,29 130.909091,29 C130.609089,29 130.352274,28.8924272 130.138636,28.6772784 C129.924999,28.4621296 129.818182,28.2034971 129.818182,27.9013733 L129.818182,20.7602996 C129.818182,19.3961646 129.338641,18.2311742 128.379545,17.2652934 C127.42045,16.2994126 126.263643,15.8164794 124.909091,15.8164794 C123.554539,15.8164794 122.397732,16.2994126 121.438636,17.2652934 C120.479541,18.2311742 120,19.3961646 120,20.7602996 L120,27.9013733 C120,28.2034971 119.893183,28.4621296 119.679545,28.6772784 C119.465908,28.8924272 119.209092,29 118.909091,29 C118.609089,29 118.352274,28.8924272 118.138636,28.6772784 C117.924999,28.4621296 117.818182,28.2034971 117.818182,27.9013733 L117.818182,14.7178527 Z" id="Binman"></path>
                </g>
            </g>
        </g>
    </g>
</svg>